<svg xmlns="http://www.w3.org/2000/svg" width="129" height="20" aria-label="Godot: 4.2-stable"><linearGradient id="s" x2="0" y2="100%"><stop stop-color="#bbb" stop-opacity=".1" offset="0"/><stop stop-opacity=".1" offset="1"/></linearGradient><clipPath id="r"><rect width="129" height="20" rx="3" fill="#fff"/></clipPath><g clip-path="url(#r)"><rect width="60" height="20" fill="#555"/><rect x="60" width="69" height="20" fill="#007ec6"/><rect width="129" height="20" fill="url(#s)"/></g><g fill="#fff" font-family="Verdana,Geneva,DejaVu Sans,sans-serif" font-size="110" text-anchor="middle" text-rendering="geometricPrecision"><text transform="scale(.1)" x="395" y="150" fill="#010101" fill-opacity=".3" aria-hidden="true" textLength="330">Godot</text><text transform="scale(.1)" x="395" y="140" fill="#fff" textLength="330">Godot</text><text transform="scale(.1)" x="935" y="150" fill="#010101" fill-opacity=".3" aria-hidden="true" textLength="590">4.2-stable</text><text transform="scale(.1)" x="935" y="140" fill="#fff" textLength="590">4.2-stable</text><g transform="matrix(.015 0 0 .015 4.2 2.3)"><path d="m777 532a60 60 0 01-60 60 60 60 0 01-60-60 60 60 0 0160-60 60 60 0 0160 60zm-360-455c-43 9.3-84 23-123 42 .67 34 3.3 68 8 102-32 18-61 39-88 64-26-18-53-34-82-47-32 33-60 69-83 108 17 28 36 55 56 81v246l152 14c8 .67 13 5.4 15 14l4 67 132 9.9 8-61c1.3-7.3 6.3-12 15-15h162c8.7 2.7 14 7.6 15 15l8 61 132-9.9 4-67c2-8.7 7-13 15-14l152-14v-246c20-26 39-53 56-81-23-39-51-75-83-108-29 13-56 29-82 47-27-25-56-46-88-64 4.7-34 7.3-68 8-102-39-19-80-33-123-42-17 29-33 58-46 89-33-4.7-65-4.7-98 0-13-31-29-60-46-89zm-118 359a90 90 0 0190 90 90 90 0 01-90 90 90 90 0 01-90-90 90 90 0 0190-90zm426 0a90 90 0 0190 90 90 90 0 01-90 90 90 90 0 01-90-90 90 90 0 0190-90zm-213 53c14 0 27 8.4 29 25v86c-3 34-55 34-58 0v-86c1.5-17 15-25 29-25zm-407 218v39c0 276 813 276 813 0v-39l-134 12-5 69c-1.3 6.7-6.1 11-14 13l-162 11c-8 0-13-3.6-16-11l-10-65h-130l-9.9 65c-2.7 7.3-8 11-16 11l-162-11c-8-2-13-6.4-14-13l-4.9-69zm262-174a60 60 0 01-60 60 60 60 0 01-60-60 60 60 0 0160-60 60 60 0 0160 60z"/></g></g></svg>
