<svg width="25.2mm" height="24.8mm" version="1.1" viewBox="0 0 25.2 24.8" xmlns="http://www.w3.org/2000/svg"><g transform="translate(-121 3.41)"><rect x="121" y="-3.41" width="25.3" height="24.8" fill="#f2de1d" stroke-width=".0836"/><path d="m132 17.5c-3.79-0.422-6.68-3.97-6.93-7.68-0.357-3.21 1.27-6.63 4.22-8.07 2.46-1.47 5.42-0.895 8.14-0.977 1.45 0.0609 2.84-0.378 4.19-0.82 1.04 0.2-0.178 1.91-0.383 2.6-0.921 1.84-2.6 3.27-4.58 3.83-0.771-0.0721-2.94 0.103-1.68-1.1 1.37-1.26-1.43-1.05-2.09-0.798-2.32 0.625-4.21 3.17-3.45 5.59 0.201 1.18 1.09 2.16 2.09 2.84 0.711 0.448 2.83 1.55 2.38-0.136-0.119-1.23-0.329-2.47-0.302-3.71 1.05-0.284 2.59-0.382 3.02 0.845 1.93 2.17 4.25 4.04 5.83 6.5 0.944 1.04-0.255 1.34-1.17 1.13-3.09-0.0381-6.19 0.0811-9.28-0.042z" fill="#1e5dfa" stroke-width=".0972"/></g></svg>